<svg width="343" height="316" viewBox="0 0 343 316" fill="none" xmlns="http://www.w3.org/2000/svg">
<path d="M171.766 315.995C266.327 315.995 342.984 311.52 342.984 305.999C342.984 300.478 266.327 296.002 171.766 296.002C77.2056 296.002 0.548828 300.478 0.548828 305.999C0.548828 311.52 77.2056 315.995 171.766 315.995Z" fill="#F5F5F5"/>
<path d="M259.411 82.7508L250.651 79.2185C250.651 79.2185 239.091 100.297 235.78 101.366C231.276 102.814 221.951 106.841 216.423 107.547C215.672 108.43 214.445 111.177 214.56 112.175C221.986 114.656 238.305 111.362 241.802 108.766C249.759 102.876 259.411 82.7508 259.411 82.7508Z" fill="#E58A7B"/>
<path d="M262.104 77.9557C263.738 83.987 254.889 96.1204 254.889 96.1204L243.295 89.621C243.295 89.621 245.467 84.6317 248.116 79.554C252.364 71.3504 260.241 71.0766 262.104 77.9557Z" fill="#4CAF4F"/>
<path opacity="0.2" d="M262.104 77.9557C263.738 83.987 254.889 96.1204 254.889 96.1204L243.295 89.621C243.295 89.621 245.467 84.6317 248.116 79.554C252.364 71.3504 260.241 71.0766 262.104 77.9557Z" fill="black"/>
<path opacity="0.2" d="M247.896 92.2173L252.461 94.7782L253.265 80.7639C250.607 82.8038 248.734 88.9499 247.896 92.2173Z" fill="black"/>
<path d="M254.474 73.4168C254.474 73.4168 245.449 93.4978 250.712 130.887H286.274C286.839 125.429 284.967 98.7962 291.74 73.0813C287.839 72.3189 283.892 71.8145 279.924 71.5712C274.892 71.2796 269.847 71.2796 264.815 71.5712C261.327 71.9255 257.87 72.5424 254.474 73.4168Z" fill="#4CAF4F"/>
<path opacity="0.2" d="M254.474 73.4168C254.474 73.4168 245.449 93.4978 250.712 130.887H286.274C286.839 125.429 284.967 98.7962 291.74 73.0813C287.839 72.3189 283.892 71.8145 279.924 71.5712C274.892 71.2796 269.847 71.2796 264.815 71.5712C261.327 71.9255 257.87 72.5424 254.474 73.4168Z" fill="black"/>
<g style="mix-blend-mode:multiply">
<path d="M246.226 306.793C246.173 307.747 259.658 308.515 276.339 308.515C293.02 308.515 306.602 307.747 306.655 306.793C306.708 305.84 293.232 305.08 276.542 305.08C259.852 305.08 246.288 305.849 246.226 306.793Z" fill="#E8ECF1"/>
</g>
<path d="M269.964 281.735L263.657 284.176L269.09 298.211L275.397 295.77L269.964 281.735Z" fill="#E58A7B"/>
<path d="M298.089 300.003H291.439L289.002 284.611H295.652L298.089 300.003Z" fill="#E58A7B"/>
<path d="M290.98 299.234H298.451C298.581 299.235 298.706 299.281 298.804 299.365C298.903 299.449 298.969 299.566 298.99 299.694L299.952 305.601C299.972 305.75 299.961 305.9 299.917 306.044C299.874 306.187 299.801 306.319 299.702 306.431C299.603 306.544 299.481 306.633 299.344 306.694C299.208 306.755 299.06 306.786 298.91 306.785C296.305 306.74 295.051 306.581 291.766 306.581C289.744 306.581 285.585 306.793 282.777 306.793C279.968 306.793 279.783 304.038 280.94 303.782C286.132 302.661 288.146 301.133 289.876 299.649C290.182 299.381 290.574 299.234 290.98 299.234Z" fill="#263238"/>
<path d="M268.904 296.956L275.968 294.89C276.094 294.854 276.229 294.863 276.349 294.914C276.47 294.966 276.569 295.057 276.63 295.172L279.28 300.471C279.341 300.605 279.373 300.751 279.372 300.899C279.371 301.047 279.338 301.193 279.275 301.327C279.212 301.46 279.12 301.579 279.007 301.673C278.893 301.768 278.76 301.837 278.617 301.875C276.048 302.581 274.326 303.014 271.111 303.95C268.895 304.595 266.634 305.645 264.444 306.343C262.925 306.829 259.358 306.846 257.512 306.846C254.783 306.846 254.174 303.968 255.349 303.835C258.307 303.508 258.704 303.659 260.338 302.837C263.011 301.669 265.434 299.996 267.473 297.91C267.858 297.471 268.351 297.142 268.904 296.956Z" fill="#263238"/>
<path d="M217.536 107.512L210.224 104.448L207.213 112.554C210.21 113.011 213.258 113.011 216.255 112.554L217.536 107.512Z" fill="#E58A7B"/>
<path d="M204.784 104.236L204.59 109.623L207.213 112.537L210.224 104.43L204.784 104.236Z" fill="#E58A7B"/>
<path d="M270.829 282.926L264.502 285.369L267.304 292.627L273.631 290.184L270.829 282.926Z" fill="#CF6F64"/>
<path d="M295.652 284.611H289.002L290.265 292.55H296.914L295.652 284.611Z" fill="#CF6F64"/>
<path opacity="0.2" d="M249.582 120.776C249.715 122.374 249.865 124.008 250.059 125.685L276.498 117.102C280.627 115.878 284.215 113.284 286.671 109.746C286.777 107.388 286.909 104.907 287.112 102.32C287.201 101.066 287.307 99.7763 287.422 98.4694C287.536 97.1624 287.695 95.7142 287.863 94.319L249.582 120.776Z" fill="black"/>
<path d="M258.219 91.811L257.335 91.7051C257.856 87.2897 261.15 83.8104 264.621 83.8987V84.7818C261.583 84.72 258.687 87.8549 258.219 91.811Z" fill="white"/>
<path d="M262.925 99.9617H262.775V99.0786C265.813 99.1934 268.665 96.0232 269.133 92.0759L270.016 92.1819C269.548 96.5001 266.36 99.9617 262.925 99.9617Z" fill="white"/>
<path d="M279.43 54.5544C278.185 59.4201 276.719 68.3303 279.924 71.5711C279.924 71.5711 277.681 76.5075 268.648 76.5075C260.391 76.5075 264.815 71.5711 264.815 71.5711C270.308 70.2818 270.405 66.2727 269.681 62.4755L279.43 54.5544Z" fill="#E58A7B"/>
<path d="M275.456 57.7865L269.69 62.4756C269.868 63.3482 269.972 64.2345 269.999 65.1248C271.685 66.8026 275.067 62.5551 275.412 60.3827C275.587 59.5275 275.602 58.6472 275.456 57.7865Z" fill="#CF6F64"/>
<path d="M259.773 54.4927C260.174 55.1881 260.714 55.7933 261.36 56.2704C262.006 56.7475 262.743 57.0863 263.526 57.2655C265.645 57.7335 266.705 55.782 266.122 53.8216C265.601 52.0554 263.861 49.68 261.707 50.0862C261.245 50.1813 260.813 50.3855 260.447 50.6819C260.08 50.9783 259.79 51.3582 259.601 51.7897C259.412 52.2212 259.328 52.6918 259.358 53.1621C259.388 53.6323 259.53 54.0886 259.773 54.4927Z" fill="#CF6F64"/>
<path d="M263.279 38.9243C259.976 40.4343 258.81 53.5567 262.961 55.4994C267.111 57.4422 269.531 36.0543 263.279 38.9243Z" fill="#263238"/>
<path d="M280.436 47.2338C279.642 53.8215 279.553 57.6982 276.021 61.0715C274.927 62.1909 273.544 62.9861 272.026 63.3692C270.508 63.7523 268.914 63.7085 267.419 63.2425C265.924 62.7766 264.587 61.9067 263.556 60.7288C262.525 59.5509 261.839 58.1109 261.574 56.5678C260.506 50.6513 261.98 40.8758 268.586 38.2531C269.974 37.6409 271.5 37.4111 273.006 37.5875C274.513 37.7638 275.945 38.34 277.154 39.2561C278.363 40.1723 279.305 41.3951 279.882 42.7978C280.459 44.2006 280.651 45.7322 280.436 47.2338Z" fill="#E58A7B"/>
<path d="M269.584 42.3329C274.476 41.0878 278.07 40.24 276.781 44.3109C275.076 49.7506 273.028 55.0137 275.774 55.2521C277.452 55.4022 284.869 52.2585 283.925 49.0707C283.103 46.2978 286.574 45.5384 287.192 44.1343C289.479 39.0479 282.936 39.719 284.101 36.6283C285.267 33.5375 278.803 28.5571 275.271 31.0385C269.522 35.0476 259.658 34.9858 264.842 28.3893C268.559 23.6825 261.927 24.6451 261.927 24.6451C261.927 24.6451 265.937 27.0205 259.19 30.6941C252.055 34.6149 258.598 45.1499 269.584 42.3329Z" fill="#263238"/>
<path d="M283.033 54.4927C282.067 55.8902 280.616 56.8785 278.962 57.2655C276.781 57.7335 275.942 55.782 276.763 53.8216C277.496 52.0554 279.509 49.68 281.593 50.0862C283.677 50.4924 284.154 52.7619 283.033 54.4927Z" fill="#E58A7B"/>
<path d="M250.712 130.887C250.712 130.887 244.743 184.312 244.275 204.587C243.798 225.675 264.506 291.472 264.506 291.472L275.103 287.057C275.103 287.057 262.74 226.938 264.506 206.23C266.378 183.65 274.114 130.922 274.114 130.922L250.712 130.887Z" fill="#4CAF4F"/>
<path opacity="0.2" d="M265.548 145.554C260.788 155.427 263.994 174.952 266.572 186.52C267.553 178.351 268.718 169.485 269.822 161.282C269.716 148.672 268.736 138.931 265.548 145.554Z" fill="black"/>
<path d="M274.635 283.56C274.688 283.56 275.889 286.933 275.889 286.933L263.667 292.073L261.742 288.487L274.635 283.56Z" fill="#4CAF4F"/>
<path d="M263.331 130.887C263.331 130.887 267.897 181.698 270.917 200.728C274.237 221.578 287.254 291.013 287.254 291.013H299.431C299.431 291.013 292.137 223.264 290.76 202.618C289.258 180.224 286.274 130.887 286.274 130.887H263.331Z" fill="#4CAF4F"/>
<path d="M299.617 287.843C299.67 287.843 300.023 291.243 300.023 291.243H286.636L285.682 287.339L299.617 287.843Z" fill="#4CAF4F"/>
<path opacity="0.2" d="M294.954 283.816C294.926 283.816 294.9 283.807 294.879 283.789C294.857 283.771 294.844 283.746 294.839 283.719C294.769 283.101 288.19 221.904 286.954 203.36C285.611 183.244 282.909 138.622 282.883 138.172C282.881 138.157 282.883 138.143 282.888 138.129C282.893 138.115 282.9 138.102 282.91 138.091C282.92 138.081 282.932 138.072 282.946 138.066C282.959 138.06 282.974 138.057 282.989 138.057C283.018 138.057 283.045 138.068 283.067 138.088C283.088 138.107 283.101 138.134 283.103 138.163C283.103 138.614 285.832 183.2 287.174 203.351C288.411 221.896 294.989 283.048 295.051 283.71C295.054 283.725 295.053 283.74 295.05 283.754C295.046 283.768 295.039 283.782 295.03 283.793C295.021 283.805 295.009 283.815 294.996 283.822C294.983 283.829 294.969 283.833 294.954 283.834V283.816Z" fill="black"/>
<path d="M270.334 49.0706C270.334 49.6093 269.999 50.042 269.645 50.042C269.292 50.042 269.036 49.6093 269.071 49.0706C269.107 48.5319 269.407 48.0992 269.76 48.0992C270.113 48.0992 270.37 48.5408 270.334 49.0706Z" fill="#263238"/>
<path d="M264.276 49.0706C264.276 49.6093 263.932 50.042 263.588 50.042C263.243 50.042 262.978 49.6093 263.005 49.0706C263.031 48.5319 263.349 48.0992 263.702 48.0992C264.056 48.0992 264.312 48.5408 264.276 49.0706Z" fill="#263238"/>
<path d="M266.184 49.3444C265.447 50.9892 264.497 52.5301 263.358 53.9275C264.241 54.8105 265.892 54.4043 265.892 54.4043L266.184 49.3444Z" fill="#DF5753"/>
<path d="M266.343 56.6562C266.322 56.6562 266.302 56.6521 266.283 56.644C266.264 56.6359 266.247 56.624 266.233 56.6092C266.219 56.5943 266.208 56.5767 266.201 56.5574C266.194 56.5382 266.191 56.5177 266.193 56.4973C266.195 56.4543 266.214 56.4139 266.245 56.3843C266.276 56.3547 266.317 56.3382 266.36 56.3383C267.036 56.343 267.704 56.1963 268.315 55.909C268.926 55.6217 269.465 55.2011 269.893 54.6781C269.923 54.6514 269.962 54.6367 270.003 54.6367C270.044 54.6367 270.083 54.6514 270.113 54.6781C270.142 54.7078 270.158 54.7473 270.158 54.7885C270.158 54.8297 270.142 54.8693 270.113 54.8989C269.656 55.4547 269.08 55.9011 268.427 56.2052C267.775 56.5092 267.063 56.6634 266.343 56.6562Z" fill="#263238"/>
<path d="M271.412 47.4458C271.369 47.4675 271.322 47.4788 271.275 47.4788C271.227 47.4788 271.18 47.4675 271.138 47.4458C270.807 47.2322 270.432 47.0994 270.04 47.058C269.649 47.0165 269.254 47.0677 268.886 47.2074C268.85 47.2253 268.811 47.2359 268.771 47.2384C268.731 47.241 268.691 47.2356 268.653 47.2224C268.615 47.2092 268.58 47.1886 268.551 47.1618C268.521 47.1349 268.497 47.1024 268.48 47.0661C268.447 46.9875 268.446 46.8992 268.478 46.82C268.509 46.7409 268.57 46.6771 268.648 46.6422C269.109 46.4536 269.61 46.3793 270.106 46.4254C270.603 46.4715 271.081 46.6368 271.5 46.9071C271.534 46.9301 271.563 46.9596 271.585 46.9939C271.607 47.0282 271.623 47.0666 271.63 47.1069C271.637 47.1471 271.637 47.1884 271.628 47.2284C271.619 47.2684 271.603 47.3063 271.579 47.3398C271.535 47.3905 271.476 47.4272 271.412 47.4458Z" fill="#263238"/>
<path d="M261.936 45.6798C261.889 45.6684 261.846 45.6439 261.813 45.6091C261.783 45.5803 261.76 45.546 261.744 45.5081C261.728 45.4702 261.72 45.4295 261.72 45.3883C261.72 45.3472 261.728 45.3065 261.744 45.2686C261.76 45.2307 261.783 45.1964 261.813 45.1676C262.151 44.788 262.573 44.4917 263.044 44.3017C263.516 44.1118 264.025 44.0334 264.532 44.0726C264.573 44.0788 264.612 44.0934 264.647 44.1153C264.682 44.1372 264.711 44.166 264.735 44.2C264.758 44.2339 264.774 44.2723 264.782 44.3126C264.789 44.353 264.789 44.3945 264.78 44.4346C264.761 44.5164 264.713 44.5884 264.644 44.6372C264.576 44.686 264.492 44.7082 264.409 44.6996C264.008 44.6743 263.606 44.7406 263.234 44.8936C262.862 45.0466 262.53 45.2823 262.263 45.5826C262.223 45.6273 262.171 45.66 262.113 45.6772C262.056 45.6943 261.994 45.6952 261.936 45.6798Z" fill="#263238"/>
<path d="M295.157 81.7706L285.973 79.3245C285.973 79.3245 276.966 101.498 273.778 102.938C269.451 104.916 258.492 111.768 253.83 115.009C253.574 116.113 253.777 119.036 254.36 119.84C262.307 118.391 277.522 112.537 280.701 109.561C287.951 102.77 295.157 81.7706 295.157 81.7706Z" fill="#E58A7B"/>
<path d="M288.746 300.4C288.298 300.435 287.851 300.314 287.483 300.056C287.37 299.953 287.285 299.822 287.237 299.677C287.189 299.531 287.179 299.376 287.21 299.225C287.215 299.132 287.246 299.041 287.299 298.963C287.352 298.886 287.425 298.824 287.51 298.784C288.252 298.404 290.327 299.72 290.565 299.87C290.591 299.886 290.612 299.911 290.623 299.939C290.634 299.968 290.635 299.999 290.627 300.029C290.62 300.06 290.604 300.088 290.583 300.111C290.561 300.135 290.534 300.152 290.503 300.162C289.928 300.303 289.339 300.383 288.746 300.4ZM287.863 299.022C287.796 299.008 287.727 299.008 287.66 299.022C287.626 299.04 287.598 299.066 287.579 299.099C287.56 299.132 287.552 299.17 287.554 299.208C287.53 299.311 287.534 299.418 287.565 299.518C287.596 299.619 287.653 299.71 287.731 299.782C288.075 300.091 288.94 300.126 290.08 299.905C289.401 299.459 288.637 299.158 287.837 299.022H287.863Z" fill="#4CAF4F"/>
<path d="M290.459 300.162C290.436 300.169 290.412 300.169 290.389 300.162C289.726 299.791 288.481 298.334 288.667 297.592C288.694 297.474 288.761 297.369 288.855 297.294C288.95 297.219 289.067 297.177 289.188 297.177C289.306 297.161 289.427 297.171 289.541 297.206C289.655 297.241 289.761 297.3 289.85 297.38C290.583 298.007 290.627 299.932 290.627 300.029C290.631 300.058 290.626 300.088 290.611 300.113C290.597 300.139 290.575 300.159 290.548 300.17C290.518 300.176 290.487 300.173 290.459 300.162ZM289.276 297.468H289.214C289.011 297.468 288.985 297.583 288.976 297.627C288.87 298.06 289.656 299.164 290.309 299.685C290.306 298.939 290.075 298.211 289.647 297.601C289.544 297.511 289.412 297.464 289.276 297.468Z" fill="#4CAF4F"/>
<path d="M265.301 299.296C264.76 299.485 264.172 299.485 263.632 299.296C263.509 299.23 263.405 299.133 263.329 299.016C263.254 298.899 263.209 298.764 263.199 298.625C263.188 298.538 263.199 298.449 263.231 298.367C263.264 298.285 263.317 298.213 263.384 298.157C264.091 297.521 266.979 298.157 267.305 298.281C267.336 298.289 267.364 298.307 267.383 298.333C267.402 298.358 267.412 298.39 267.411 298.422C267.413 298.455 267.404 298.488 267.387 298.516C267.369 298.544 267.344 298.567 267.314 298.581C266.664 298.874 265.99 299.114 265.301 299.296ZM263.861 298.245C263.76 298.266 263.666 298.311 263.588 298.378C263.559 298.399 263.538 298.427 263.525 298.46C263.513 298.493 263.51 298.529 263.517 298.563C263.523 298.656 263.552 298.746 263.601 298.824C263.65 298.903 263.719 298.968 263.799 299.014C264.268 299.261 265.354 299.067 266.758 298.475C265.812 298.236 264.833 298.159 263.861 298.245Z" fill="#4CAF4F"/>
<path d="M267.288 298.581H267.217C266.334 298.422 264.568 297.406 264.515 296.647C264.515 296.47 264.594 296.223 265.018 296.082C265.161 296.031 265.313 296.009 265.465 296.018C265.617 296.027 265.765 296.067 265.901 296.135C266.855 296.603 267.358 298.298 267.385 298.378C267.391 298.405 267.39 298.432 267.382 298.459C267.375 298.485 267.36 298.509 267.341 298.528C267.327 298.55 267.309 298.568 267.288 298.581ZM265.195 296.347H265.106C264.833 296.444 264.833 296.559 264.833 296.594C264.833 297.053 266.113 297.892 267.005 298.175C266.8 297.465 266.365 296.844 265.769 296.409C265.591 296.318 265.387 296.296 265.195 296.347Z" fill="#4CAF4F"/>
<path d="M254.58 114.488L245.37 118.727L244.301 121.376L247.701 123.663C247.701 123.663 254.059 122.974 255.87 118.886L254.58 114.488Z" fill="#E58A7B"/>
<path d="M254.969 119.99C254.763 118.22 254.179 116.515 253.256 114.991L254.713 113.896C255.809 115.652 256.508 117.626 256.762 119.681L254.969 119.99Z" fill="#263238"/>
<path d="M256.541 115.742C256.735 116.048 256.831 116.407 256.815 116.77C256.798 117.132 256.67 117.481 256.449 117.768C256.227 118.056 255.922 118.268 255.576 118.376C255.23 118.484 254.858 118.483 254.513 118.372C254.167 118.262 253.864 118.047 253.644 117.758C253.425 117.469 253.299 117.12 253.285 116.757C253.272 116.394 253.37 116.036 253.567 115.731C253.764 115.427 254.05 115.19 254.386 115.053C254.763 114.861 255.202 114.826 255.605 114.954C256.009 115.083 256.345 115.367 256.541 115.742Z" fill="#263238"/>
<path d="M239.144 122.153L240.372 123.39L248.637 119.857L245.37 118.727L239.144 122.153Z" fill="#E58A7B"/>
<path opacity="0.2" d="M274.635 283.56C274.688 283.56 275.889 286.933 275.889 286.933L263.667 292.073L261.742 288.487L274.635 283.56Z" fill="black"/>
<path opacity="0.2" d="M299.617 287.843C299.67 287.843 300.023 291.243 300.023 291.243H286.636L285.682 287.339L299.617 287.843Z" fill="black"/>
<path d="M297.55 79.2273C299.979 87.0601 290.486 97.7717 290.486 97.7717L277.372 92.4203C278.927 87.893 280.719 83.4509 282.741 79.1125C286.768 70.432 295.095 71.3239 297.55 79.2273Z" fill="#4CAF4F"/>
<path opacity="0.2" d="M297.55 79.2273C299.979 87.0601 290.486 97.7717 290.486 97.7717L277.372 92.4203C278.927 87.893 280.719 83.4509 282.741 79.1125C286.768 70.432 295.095 71.3239 297.55 79.2273Z" fill="black"/>
<path d="M167.245 0.74939H161.602V1.65895H167.245V0.74939Z" fill="#4CAF4F"/>
<path d="M240.291 36.7489L239.608 51.9045L240.516 51.9455L241.199 36.7898L240.291 36.7489Z" fill="#4CAF4F"/>
<path d="M238.535 4.8291H134.333L124.637 221.816H228.839L238.535 4.8291Z" fill="#4CAF4F"/>
<path opacity="0.56" d="M235.427 7.81396H131.225L121.529 224.801H225.731L235.427 7.81396Z" fill="#FAFAFA"/>
<path opacity="0.07" d="M232.318 10.7898H128.117L118.412 227.777H222.613L232.318 10.7898Z" fill="#4CAF4F"/>
<path d="M220.459 105.428H131.516L130.775 122.03H219.717L220.459 105.428Z" fill="white"/>
<path d="M180.429 93.3124H132.055L131.728 100.739H180.103L180.429 93.3124Z" fill="#4CAF4F"/>
<path d="M218.454 150.235H129.512L128.77 166.836H217.712L218.454 150.235Z" fill="white"/>
<path opacity="0.47" d="M202.144 189.257H142.334L141.442 209.153H201.252L202.144 189.257Z" fill="#4CAF4F"/>
<path d="M198.144 212.244H138.334C138.308 212.25 138.28 212.25 138.254 212.244C138.245 212.218 138.245 212.19 138.254 212.164L139.137 192.26C139.137 192.246 139.14 192.233 139.145 192.22C139.151 192.208 139.159 192.197 139.169 192.188C139.179 192.179 139.19 192.172 139.203 192.167C139.216 192.163 139.23 192.161 139.243 192.163H199.053C199.064 192.157 199.076 192.154 199.089 192.154C199.101 192.154 199.113 192.157 199.124 192.163C199.13 192.173 199.133 192.186 199.133 192.198C199.133 192.21 199.13 192.223 199.124 192.233L198.258 212.182C198.248 212.203 198.231 212.22 198.211 212.231C198.19 212.242 198.167 212.246 198.144 212.244ZM138.44 212.032H198.038L198.921 192.339H139.323L138.44 212.032Z" fill="white"/>
<path d="M169.983 138.119H130.05L129.724 145.555H169.647L169.983 138.119Z" fill="#4CAF4F"/>
</svg>
