<svg width="211" height="346" viewBox="0 0 211 346" fill="none" xmlns="http://www.w3.org/2000/svg">
<path d="M143.908 256.606C127.94 245.454 124.322 224.753 124.953 206.139C125.056 203.038 124.715 199.752 126.193 197.033C127.671 194.315 131.123 192.445 133.903 193.747C136.208 194.832 137.211 197.519 138.502 199.741C140.226 202.701 142.752 205.112 145.789 206.697C147.763 207.73 150.212 208.351 152.166 207.276C154.853 205.798 155.163 202.108 155.142 199.008C155.142 193.24 155.108 187.48 155.039 181.727C154.853 178.638 155.167 175.538 155.969 172.549C156.93 169.614 159.07 166.896 161.994 166.069C164.919 165.242 168.568 166.948 169.229 169.965C169.343 171.244 169.374 172.528 169.322 173.81C169.405 175.102 170.004 176.518 171.214 176.911C172.423 177.303 173.684 176.404 174.614 175.495C177.797 172.394 179.968 168.353 181.983 164.364C183.998 160.374 185.972 156.271 188.866 152.871C191.76 149.471 195.76 146.773 200.235 146.515C204.71 146.256 209.371 149.005 210.488 153.346C211.604 157.687 209.072 162.121 206.353 165.645C202.252 170.877 197.417 175.489 191.998 179.339C190.94 179.917 190.096 180.819 189.59 181.913C188.918 183.98 190.871 186.047 192.907 186.698C195.212 187.463 197.713 187.225 200.142 187.515C202.571 187.804 205.155 188.858 206.074 191.132C207.335 194.295 204.689 197.602 202.095 199.772C196.886 204.113 190.972 207.528 184.608 209.87C182.334 210.697 179.947 211.43 178.107 213.022C176.267 214.614 175.172 217.394 176.278 219.575C177.384 221.755 180.226 222.448 182.613 222.003C185.001 221.559 187.12 220.277 189.393 219.42C193.641 217.818 199.119 218.107 201.796 221.776C202.625 223.04 203.15 224.479 203.329 225.98C203.508 227.481 203.337 229.003 202.829 230.427C201.795 233.26 200.203 235.857 198.147 238.064C191.378 246.152 182.583 252.297 172.66 255.872C162.811 259.283 153.685 260.213 143.897 256.627" fill="#4CAF4F"/>
<path d="M205.94 149.068C205.94 149.068 205.847 149.171 205.64 149.357L204.721 150.173C203.914 150.897 202.726 151.951 201.227 153.346C196.978 157.291 193.033 161.551 189.424 166.09C187.12 168.953 184.732 172.198 182.19 175.722C179.647 179.246 177.022 183.05 174.418 187.091C171.641 191.352 169.098 195.762 166.8 200.299C165.602 202.666 164.547 205.136 163.462 207.658L160.258 215.358C156.035 225.057 152.357 234.984 149.241 245.092C146.731 253.363 145.001 261.851 144.073 270.445C143.472 276.244 143.375 282.085 143.784 287.901C143.949 289.968 144.104 291.549 144.249 292.624C144.311 293.141 144.352 293.554 144.394 293.854V294.278C144.349 294.144 144.318 294.005 144.301 293.865C144.249 293.565 144.187 293.162 144.104 292.645C143.918 291.611 143.722 289.979 143.536 287.911C143.037 282.084 143.072 276.224 143.639 270.404C144.509 261.773 146.202 253.246 148.693 244.937C151.783 234.8 155.451 224.848 159.679 215.13L162.966 207.462C164.051 204.95 165.116 202.459 166.325 200.082C168.639 195.531 171.202 191.111 174.004 186.843C176.65 182.709 179.316 178.967 181.828 175.474C184.339 171.981 186.768 168.715 189.063 165.862C192.708 161.336 196.706 157.106 201.021 153.212C202.55 151.837 203.77 150.804 204.597 150.111L205.558 149.336C205.676 149.234 205.804 149.144 205.94 149.068Z" fill="#263238"/>
<path d="M166.459 200.062C166.313 199.636 166.213 199.196 166.16 198.749C165.994 197.891 165.808 196.682 165.591 195.111C165.147 192.011 164.692 187.763 164.206 183.06C163.72 178.358 163.173 174.1 162.718 171.03C162.48 169.5 162.274 168.27 162.129 167.413C162.016 166.974 161.957 166.522 161.953 166.069C162.131 166.483 162.259 166.917 162.336 167.361C162.563 168.208 162.821 169.428 163.111 170.968C163.7 174.069 164.279 178.285 164.764 182.998C165.25 187.711 165.663 191.845 165.984 195.059C166.139 196.506 166.273 197.736 166.377 198.718C166.457 199.161 166.485 199.612 166.459 200.062Z" fill="#263238"/>
<path d="M206.229 192.641C205.726 192.75 205.214 192.813 204.7 192.827C203.666 192.92 202.199 193.044 200.38 193.251C196.742 193.644 191.739 194.367 186.251 195.4C180.763 196.434 175.833 197.602 172.288 198.501C170.521 198.956 169.095 199.369 168.154 199.648C167.652 199.827 167.132 199.951 166.604 200.02C167.082 199.78 167.58 199.583 168.092 199.431C169.064 199.09 170.469 198.615 172.226 198.108C175.751 197.075 180.681 195.845 186.189 194.791C190.856 193.898 195.564 193.243 200.297 192.827C202.126 192.672 203.604 192.61 204.638 192.589C205.169 192.553 205.702 192.571 206.229 192.641Z" fill="#263238"/>
<path d="M149.199 244.214C149.089 244.064 148.999 243.901 148.931 243.728L148.249 242.292C147.659 241.041 146.864 239.191 145.913 236.928C143.99 232.38 141.541 226.014 138.936 218.944C136.332 211.875 133.934 205.508 132.115 200.909C131.226 198.677 130.493 196.847 129.945 195.483L129.366 194.005C129.286 193.835 129.23 193.654 129.201 193.468C129.311 193.617 129.401 193.781 129.469 193.954L130.152 195.39C130.73 196.641 131.536 198.491 132.487 200.754C134.41 205.302 136.859 211.668 139.464 218.738C142.068 225.807 144.466 232.173 146.285 236.773C147.174 239.005 147.908 240.834 148.445 242.199C148.683 242.788 148.879 243.232 149.034 243.677C149.114 243.847 149.17 244.028 149.199 244.214Z" fill="#263238"/>
<path d="M201.992 227.192C201.826 227.287 201.649 227.36 201.465 227.409L199.935 227.926L194.282 229.755C189.507 231.305 182.913 233.517 175.678 235.956C168.444 238.395 161.819 240.566 157.013 242.013C154.615 242.746 152.662 243.304 151.308 243.677L149.747 244.08C149.566 244.137 149.379 244.175 149.189 244.193C149.355 244.098 149.532 244.025 149.716 243.976L151.246 243.459L156.899 241.63C161.674 240.08 168.268 237.868 175.503 235.429C182.737 232.99 189.352 230.819 194.158 229.372C196.566 228.639 198.509 228.081 199.873 227.709L201.434 227.305C201.615 227.248 201.802 227.21 201.992 227.192Z" fill="#263238"/>
<path d="M126.038 304.779L22.7991 304.303C16.8372 304.27 11.132 301.873 6.93654 297.636C2.74113 293.4 0.398551 287.672 0.42329 281.71L1.51883 22.9049C1.53101 19.9511 2.1252 17.0287 3.26746 14.3047C4.40971 11.5807 6.07764 9.10859 8.17586 7.02956C10.2741 4.95054 12.7615 3.30541 15.4958 2.18824C18.2302 1.07107 21.158 0.503757 24.1117 0.518721L127.34 0.994142C133.302 1.02423 139.009 3.41937 143.206 7.65354C147.403 11.8877 149.749 17.6147 149.727 23.5767L148.631 282.372C148.619 285.326 148.025 288.25 146.883 290.975C145.741 293.7 144.073 296.174 141.975 298.254C139.877 300.335 137.39 301.982 134.656 303.102C131.921 304.221 128.993 304.791 126.038 304.779Z" fill="#455A64"/>
<path d="M127.185 9.89281H107.176C106.523 9.90491 105.879 10.0455 105.281 10.3066C104.682 10.5677 104.141 10.9441 103.688 11.4144C103.235 11.8847 102.879 12.4396 102.641 13.0475C102.402 13.6553 102.286 14.3042 102.298 14.9571V18.5848C102.31 19.2371 102.194 19.8855 101.955 20.4928C101.717 21.1001 101.36 21.6543 100.907 22.1238C100.454 22.5932 99.9129 22.9687 99.3144 23.2287C98.7159 23.4886 98.0721 23.628 97.4197 23.6387L58.4144 23.463C57.0949 23.4278 55.8433 22.8704 54.9344 21.9131C54.0256 20.9558 53.5338 19.677 53.5672 18.3574V14.7297C53.6005 13.4119 53.1102 12.1346 52.2036 11.1776C51.297 10.2206 50.048 9.66196 48.7303 9.62409H41.6919L24.1737 9.54142C20.0069 9.51661 16.0001 11.1439 13.0305 14.067C10.061 16.99 8.37065 20.9707 8.32971 25.1373L7.29619 277.752C7.28666 279.819 7.68438 281.868 8.46663 283.781C9.24889 285.694 10.4004 287.435 11.8553 288.903C13.3102 290.372 15.0401 291.539 16.9463 292.339C18.8524 293.139 20.8974 293.555 22.9645 293.565L125.986 294.04C128.055 294.05 130.105 293.652 132.02 292.869C133.934 292.086 135.676 290.934 137.145 289.478C138.615 288.022 139.783 286.291 140.583 284.384C141.383 282.476 141.8 280.43 141.81 278.362L142.843 25.7471C142.868 21.5687 141.232 17.5515 138.296 14.5785C135.36 11.6055 131.364 9.92014 127.185 9.89281Z" fill="white"/>
<path d="M113.326 260.337L36.7207 260.006C35.9249 260.006 35.2841 259.138 35.2944 258.084L35.3771 238.044C35.3771 237.01 36.0283 236.121 36.8241 236.121L113.429 236.473C113.87 236.549 114.265 236.793 114.53 237.153C114.796 237.513 114.912 237.962 114.855 238.406L114.783 258.425C114.783 259.489 114.122 260.347 113.326 260.337Z" fill="#4CAF4F"/>
<path d="M60.9141 250.124C60.4859 250.124 60.0902 250.054 59.727 249.913C59.3638 249.767 59.0494 249.563 58.7837 249.303C58.5181 249.043 58.3094 248.737 58.1576 248.384C58.0113 248.032 57.9381 247.647 57.9381 247.23C57.9381 246.812 58.0113 246.427 58.1576 246.075C58.3094 245.723 58.5181 245.416 58.7837 245.156C59.0548 244.896 59.3719 244.695 59.7351 244.554C60.0983 244.408 60.494 244.335 60.9223 244.335C61.3343 244.335 61.7218 244.405 62.085 244.546C62.4482 244.682 62.7545 244.888 63.0039 245.164L62.6217 245.546C62.3886 245.308 62.1311 245.137 61.8492 245.034C61.5674 244.926 61.2638 244.872 60.9385 244.872C60.597 244.872 60.2799 244.931 59.9872 245.05C59.6944 245.164 59.4397 245.33 59.2228 245.546C59.006 245.758 58.8352 246.007 58.7106 246.295C58.5913 246.576 58.5317 246.888 58.5317 247.23C58.5317 247.571 58.5913 247.886 58.7106 248.173C58.8352 248.455 59.006 248.704 59.2228 248.921C59.4397 249.132 59.6944 249.298 59.9872 249.417C60.2799 249.531 60.597 249.588 60.9385 249.588C61.2638 249.588 61.5674 249.533 61.8492 249.425C62.1311 249.317 62.3886 249.143 62.6217 248.905L63.0039 249.287C62.7545 249.563 62.4482 249.772 62.085 249.913C61.7218 250.054 61.3315 250.124 60.9141 250.124ZM63.233 250.076L65.835 244.384H66.4285L69.0306 250.076H68.3963L66.0057 244.733H66.2497L63.8591 250.076H63.233ZM64.2575 248.555L64.4364 248.067H67.7458L67.9247 248.555H64.2575ZM69.9721 250.076V244.384H70.5739V249.555H73.7613V250.076H69.9721ZM77.1211 250.124C76.6929 250.124 76.2972 250.054 75.934 249.913C75.5708 249.767 75.2563 249.563 74.9907 249.303C74.7251 249.043 74.5164 248.737 74.3646 248.384C74.2183 248.032 74.1451 247.647 74.1451 247.23C74.1451 246.812 74.2183 246.427 74.3646 246.075C74.5164 245.723 74.7251 245.416 74.9907 245.156C75.2618 244.896 75.5789 244.695 75.9421 244.554C76.3053 244.408 76.701 244.335 77.1293 244.335C77.5412 244.335 77.9288 244.405 78.292 244.546C78.6552 244.682 78.9615 244.888 79.2109 245.164L78.8287 245.546C78.5956 245.308 78.3381 245.137 78.0562 245.034C77.7743 244.926 77.4708 244.872 77.1455 244.872C76.804 244.872 76.4869 244.931 76.1942 245.05C75.9014 245.164 75.6467 245.33 75.4298 245.546C75.213 245.758 75.0422 246.007 74.9175 246.295C74.7983 246.576 74.7387 246.888 74.7387 247.23C74.7387 247.571 74.7983 247.886 74.9175 248.173C75.0422 248.455 75.213 248.704 75.4298 248.921C75.6467 249.132 75.9014 249.298 76.1942 249.417C76.4869 249.531 76.804 249.588 77.1455 249.588C77.4708 249.588 77.7743 249.533 78.0562 249.425C78.3381 249.317 78.5956 249.143 78.8287 248.905L79.2109 249.287C78.9615 249.563 78.6552 249.772 78.292 249.913C77.9288 250.054 77.5385 250.124 77.1211 250.124ZM82.7866 250.124C82.0602 250.124 81.4883 249.916 81.0709 249.498C80.6535 249.081 80.4448 248.463 80.4448 247.644V244.384H81.0465V247.62C81.0465 248.292 81.1983 248.788 81.5019 249.108C81.8054 249.428 82.2337 249.588 82.7866 249.588C83.3449 249.588 83.7759 249.428 84.0795 249.108C84.383 248.788 84.5348 248.292 84.5348 247.62V244.384H85.1203V247.644C85.1203 248.463 84.9116 249.081 84.4942 249.498C84.0822 249.916 83.513 250.124 82.7866 250.124ZM86.9335 250.076V244.384H87.5352V249.555H90.7227V250.076H86.9335ZM90.811 250.076L93.413 244.384H94.0066L96.6086 250.076H95.9744L93.5838 244.733H93.8277L91.4371 250.076H90.811ZM91.8356 248.555L92.0145 248.067H95.3239L95.5028 248.555H91.8356ZM97.5502 250.076V244.384H99.6806C100.163 244.384 100.578 244.462 100.925 244.619C101.272 244.771 101.537 244.994 101.722 245.286C101.911 245.574 102.006 245.923 102.006 246.335C102.006 246.736 101.911 247.083 101.722 247.376C101.537 247.663 101.272 247.886 100.925 248.043C100.578 248.195 100.163 248.27 99.6806 248.27H97.8836L98.1519 247.994V250.076H97.5502ZM101.437 250.076L99.9733 248.01H100.624L102.096 250.076H101.437ZM98.1519 248.043L97.8836 247.758H99.6644C100.234 247.758 100.665 247.633 100.957 247.384C101.255 247.135 101.404 246.785 101.404 246.335C101.404 245.88 101.255 245.527 100.957 245.278C100.665 245.029 100.234 244.904 99.6644 244.904H97.8836L98.1519 244.619V248.043Z" fill="#E8E8E3"/>
<path d="M52.0005 84.1519L25.4185 84.0312L25.3963 88.9094L51.9783 89.0301L52.0005 84.1519Z" fill="#4CAF4F"/>
<path opacity="0.1" d="M52.0005 84.1519L25.4185 84.0312L25.3963 88.9094L51.9783 89.0301L52.0005 84.1519Z" fill="black"/>
<path d="M129.924 114.103C130.133 114.082 130.338 114.034 130.534 113.959C130.82 113.847 131.069 113.657 131.252 113.41C131.434 113.163 131.544 112.87 131.567 112.563C131.567 110.92 131.567 108.522 131.567 105.442C131.567 103.902 131.567 102.176 131.567 100.275C131.567 99.8097 131.567 99.3239 131.567 98.8381C131.635 98.3668 131.532 97.8869 131.278 97.4842C131.136 97.2912 130.951 97.1338 130.737 97.0244C130.524 96.915 130.288 96.8566 130.048 96.8538H128.436H113.501L27.0573 96.5334C26.836 96.5296 26.6171 96.5793 26.4192 96.6783C26.2212 96.7773 26.0501 96.9226 25.9204 97.1018C25.6708 97.5061 25.5754 97.9868 25.6517 98.4557C25.6517 99.4893 25.6517 100.523 25.6517 101.556C25.6517 103.623 25.6517 105.69 25.6517 107.757C25.6517 108.791 25.6517 109.825 25.6517 110.858C25.6088 111.339 25.6088 111.824 25.6517 112.305C25.706 112.511 25.8069 112.703 25.9466 112.864C26.0864 113.025 26.2613 113.152 26.4578 113.235C26.6615 113.316 26.8795 113.355 27.0986 113.349H32.3593L55.3139 113.473L94.1745 113.711L120.374 113.917L127.495 114H129.345C129.769 114 129.976 114 129.976 114H129.345H127.495H120.374H94.1745L55.3139 113.876L32.3593 113.783H27.0986C26.8091 113.795 26.5203 113.745 26.2511 113.638C25.979 113.522 25.737 113.345 25.5435 113.121C25.3501 112.898 25.2103 112.632 25.1349 112.346C25.0751 112.075 25.0542 111.797 25.0729 111.52V110.755C25.0729 109.721 25.0729 108.688 25.0729 107.654C25.0729 105.587 25.0729 103.52 25.0729 101.453C25.0729 100.419 25.0729 99.3859 25.0729 98.3524C25.0532 98.0771 25.0532 97.8008 25.0729 97.5256C25.1116 97.2215 25.2292 96.9329 25.414 96.6884C25.5922 96.4389 25.8282 96.2363 26.1018 96.0977C26.3753 95.9591 26.6783 95.8888 26.9849 95.8926L113.429 96.368L128.364 96.4714H129.976C130.26 96.4716 130.54 96.5403 130.792 96.6716C131.043 96.8029 131.26 96.9931 131.423 97.2258C131.714 97.6752 131.832 98.2153 131.754 98.7451C131.754 99.2309 131.754 99.7166 131.754 100.182C131.754 102.063 131.754 103.789 131.754 105.349C131.754 108.45 131.681 110.827 131.66 112.481C131.635 112.799 131.52 113.103 131.327 113.357C131.135 113.612 130.874 113.806 130.575 113.917C130.38 114.039 130.154 114.103 129.924 114.103Z" fill="#E0E0E0"/>
<path d="M82.0202 101.722H33.4031V106.28H82.0202V101.722Z" fill="#4CAF4F"/>
<path opacity="0.2" d="M82.0202 101.722H33.4031V106.28H82.0202V101.722Z" fill="white"/>
<path d="M51.8192 128.654L25.2372 128.534L25.215 133.412L51.7971 133.532L51.8192 128.654Z" fill="#4CAF4F"/>
<path opacity="0.1" d="M51.8192 128.654L25.2372 128.534L25.215 133.412L51.7971 133.532L51.8192 128.654Z" fill="black"/>
<path d="M129.252 158.607C129.461 158.581 129.668 158.543 129.872 158.493C130.161 158.401 130.427 158.249 130.651 158.045C130.876 157.842 131.054 157.593 131.175 157.315C131.337 156.898 131.401 156.448 131.361 156.002C131.361 155.506 131.361 154.969 131.361 154.369C131.361 153.171 131.361 151.806 131.361 150.235V143.672C131.41 143.197 131.305 142.719 131.061 142.308C130.806 141.887 130.405 141.574 129.934 141.43C129.42 141.338 128.895 141.31 128.374 141.347H113.501L27.357 141.027C26.8936 141.028 26.4464 141.197 26.0985 141.503C25.7506 141.809 25.5257 142.231 25.4656 142.691C25.4656 143.672 25.4656 144.758 25.4656 145.791C25.4656 147.858 25.4656 149.925 25.4656 151.992C25.4656 153.026 25.4656 154.059 25.4656 155.093C25.4271 155.576 25.4479 156.062 25.5276 156.54C25.6567 156.959 25.9223 157.323 26.2821 157.573C26.6639 157.816 27.1123 157.931 27.5637 157.904H29.0003H31.9872L54.8591 158.018L93.5853 158.256L119.692 158.462L126.793 158.545H119.692H93.5853L54.8384 158.504L31.9665 158.421H27.4707C26.9116 158.454 26.3569 158.305 25.8894 157.997C25.4191 157.671 25.0759 157.193 24.9178 156.643C24.8252 156.118 24.7974 155.584 24.8352 155.052C24.8352 154.018 24.8352 152.985 24.8352 151.951C24.8352 149.884 24.8352 147.817 24.8352 145.75C24.8352 144.716 24.8352 143.683 24.8352 142.649C24.9106 142.058 25.1988 141.515 25.6458 141.121C26.0929 140.727 26.6682 140.51 27.264 140.51L113.408 140.985L128.281 141.099C128.835 141.065 129.391 141.103 129.934 141.213C130.471 141.388 130.924 141.756 131.206 142.246C131.473 142.701 131.589 143.23 131.536 143.755C131.536 144.241 131.536 144.716 131.536 145.192C131.536 147.062 131.536 148.778 131.536 150.359C131.536 151.941 131.536 153.274 131.536 154.493C131.536 155.083 131.536 155.63 131.536 156.137C131.574 156.599 131.5 157.063 131.319 157.491C131.185 157.776 130.991 158.029 130.75 158.232C130.51 158.435 130.228 158.584 129.924 158.669C129.698 158.688 129.471 158.667 129.252 158.607Z" fill="#E0E0E0"/>
<path d="M80.9824 147.514L32.3658 147.293L32.3452 151.851L80.9617 152.072L80.9824 147.514Z" fill="#4CAF4F"/>
<path opacity="0.2" d="M80.9824 147.514L32.3658 147.293L32.3452 151.851L80.9617 152.072L80.9824 147.514Z" fill="white"/>
</svg>
