<svg width="321" height="295" viewBox="0 0 321 295" fill="none" xmlns="http://www.w3.org/2000/svg">
<path d="M320.836 294.13C320.836 294.275 249.068 294.399 160.567 294.399C72.0663 294.399 0.267212 294.275 0.267212 294.13C0.267212 293.986 72.025 293.862 160.567 293.862C249.109 293.862 320.836 293.996 320.836 294.13Z" fill="#263238"/>
<path d="M30.0328 0.143626H29.547L28.1414 0.246985C27.3808 0.292685 26.6243 0.392858 25.878 0.546716C25.3946 0.614595 24.9151 0.707728 24.4414 0.825757L22.8394 1.27018C20.1128 2.1067 17.5402 3.38076 15.2223 5.04255C12.1599 7.26543 9.60268 10.1115 7.71893 13.3934C6.61175 15.2853 5.73066 17.3007 5.09378 19.3982C4.42456 21.6779 4.03925 24.0315 3.94657 26.4055C3.88497 27.6527 3.90569 28.9025 4.00858 30.1469C4.00858 30.7774 4.18428 31.4078 4.26696 32.0486C4.3365 32.6945 4.45746 33.3339 4.62869 33.9606C5.55806 38.1079 7.44378 41.9806 10.1354 45.2698C12.8271 48.559 16.2501 51.1736 20.1316 52.9052C22.9408 54.1173 25.9518 54.7938 29.0096 54.8999C32.1678 55.0736 35.3291 54.6204 38.3113 53.5666L39.2208 53.2255H39.3448L39.4482 53.2876L52.481 59.9021L52.0986 60.2329C50.7033 55.9127 49.3597 51.7269 48.0575 47.7065V47.5515L48.1712 47.4378C51.3327 44.2534 53.6797 40.3536 55.0131 36.069C56.2208 32.1519 56.5733 28.0212 56.0466 23.9561C55.5782 20.3434 54.4166 16.8551 52.6257 13.6828C51.0819 10.9578 49.0903 8.51202 46.7346 6.44814C44.791 4.81457 42.6398 3.44532 40.337 2.37605C38.5946 1.62455 36.78 1.05315 34.9214 0.670734L32.8543 0.329669L31.3557 0.21598L30.4462 0.153971H30.1361C30.2392 0.142537 30.3431 0.142537 30.4462 0.153971H31.366L32.8646 0.21598L34.9317 0.515696C36.8134 0.870113 38.6529 1.42091 40.4197 2.15901C42.762 3.21558 44.952 4.58168 46.9309 6.22077C49.33 8.27548 51.3638 10.7216 52.9461 13.4555C54.7879 16.6618 55.9851 20.1973 56.4704 23.8631C57.0407 27.9909 56.7128 32.1933 55.5092 36.1827C54.1671 40.5564 51.7838 44.5392 48.5639 47.7892L48.6259 47.5205C49.9282 51.5409 51.2821 55.7267 52.6877 60.0365L52.884 60.667L52.2949 60.3672L39.2622 53.763H39.4895L38.5594 54.1041C35.5197 55.1737 32.2999 55.6371 29.0819 55.4683C25.9583 55.3494 22.8843 54.6484 20.0179 53.4013C14.5502 51.0596 10.0012 46.9898 7.06782 41.8154C5.71794 39.4257 4.73213 36.848 4.14293 34.1673C3.98159 33.5244 3.86077 32.872 3.7812 32.214C3.69852 31.5628 3.56416 30.9221 3.53316 30.2813C3.25344 26.6038 3.64212 22.9061 4.68037 19.3672C5.33311 17.2409 6.23876 15.2006 7.37788 13.2901C9.30656 9.97828 11.917 7.11417 15.0363 4.88752C17.3924 3.22148 20.0081 1.95724 22.7774 1.14615L24.4001 0.732743C24.8776 0.621965 25.3606 0.535725 25.847 0.474362C26.6011 0.334729 27.3646 0.251809 28.1311 0.22631L29.547 0.174646C29.708 0.152962 29.8703 0.142586 30.0328 0.143626Z" fill="#4CAF4F"/>
<path d="M35.9238 24.2455H34.0118L29.8777 18.437V14.6233C29.8777 14.6233 26.9218 14.4373 27.2732 19.4292C27.6246 24.4212 27.2732 23.1499 27.2732 23.1499C27.2732 23.1499 20.9997 23.1499 20.483 23.7184C19.9662 24.2868 19.9352 30.3433 19.8628 33.7229C19.8232 34.5376 20.057 35.3422 20.527 36.0088C20.997 36.6754 21.6763 37.1659 22.457 37.4022C22.6758 37.4629 22.9017 37.4942 23.1288 37.4953C24.6997 37.4953 32.6889 36.224 32.6889 36.224H35.9858L35.9238 24.2455Z" fill="#4CAF4F"/>
<path d="M41.3912 23.2223L40.213 36.2861H36.947V23.491L41.3912 23.2223Z" fill="#4CAF4F"/>
<path d="M80.3449 289.18V280.343L64.5009 280.229L64.3666 293.593L65.3484 293.665C69.7202 293.944 87.5899 294.358 90.5251 293.448C93.7911 292.435 80.3449 289.18 80.3449 289.18Z" fill="#4CAF4F"/>
<path d="M90.8972 292.621C90.8972 292.766 84.9647 292.89 77.6577 292.89C70.3507 292.89 64.4182 292.766 64.4182 292.621C64.4182 292.477 70.3507 292.353 77.6577 292.353C84.9647 292.353 90.8972 292.477 90.8972 292.621Z" fill="#263238"/>
<path d="M80.6239 290.988C80.4895 290.916 80.6239 290.451 80.9443 289.955C81.2647 289.459 81.6988 289.252 81.8021 289.355C81.9055 289.459 81.6884 289.851 81.3784 290.275C81.0683 290.699 80.7583 291.061 80.6239 290.988Z" fill="#263238"/>
<path d="M81.6368 291.567C81.4921 291.567 81.5644 290.988 81.8745 290.441C82.1846 289.893 82.598 289.562 82.7117 289.645C82.8253 289.727 82.6393 290.193 82.3499 290.678C82.0605 291.164 81.7711 291.619 81.6368 291.567Z" fill="#263238"/>
<path d="M69.1931 292.58C69.131 292.58 68.8933 292.394 68.5523 292.001C68.1359 291.496 67.6722 291.033 67.1673 290.616C66.6709 290.22 66.0795 289.96 65.4517 289.862C64.9659 289.8 64.6559 289.862 64.6249 289.8C64.5939 289.738 64.8936 289.521 65.462 289.479C66.2122 289.464 66.944 289.712 67.5291 290.182C68.0772 290.629 68.5395 291.172 68.8933 291.784C69.131 292.239 69.2551 292.539 69.1931 292.58Z" fill="#263238"/>
<path d="M80.6756 289.324C80.7479 289.448 80.4792 289.758 80.0245 289.924C79.5697 290.089 79.1666 290.027 79.146 289.924C79.1253 289.82 79.4457 289.603 79.8384 289.459C80.2312 289.314 80.5929 289.2 80.6756 289.324Z" fill="#263238"/>
<path d="M80.4275 288.467C80.4275 288.622 80.0141 288.746 79.4767 288.756C78.9392 288.766 78.5155 288.642 78.5258 288.498C78.5362 288.353 78.9599 288.219 79.4767 288.208C79.9934 288.198 80.4068 288.322 80.4275 288.467Z" fill="#263238"/>
<path d="M119.361 289.18V280.343L103.517 280.229L103.382 293.459L104.364 293.531C108.736 293.81 126.616 294.358 129.541 293.448C132.807 292.435 119.361 289.18 119.361 289.18Z" fill="#4CAF4F"/>
<path d="M129.913 292.642C129.913 292.787 123.991 292.911 116.673 292.911C109.356 292.911 103.444 292.787 103.444 292.642C103.444 292.497 109.366 292.373 116.673 292.373C123.98 292.373 129.913 292.497 129.913 292.642Z" fill="#263238"/>
<path d="M119.64 290.988C119.515 290.916 119.64 290.451 119.96 289.955C120.28 289.459 120.714 289.252 120.818 289.355C120.921 289.459 120.704 289.851 120.394 290.275C120.084 290.699 119.774 291.061 119.64 290.988Z" fill="#263238"/>
<path d="M120.652 291.567C120.518 291.567 120.58 290.988 120.9 290.441C121.221 289.893 121.624 289.562 121.738 289.645C121.851 289.727 121.655 290.193 121.365 290.678C121.076 291.164 120.797 291.619 120.652 291.567Z" fill="#263238"/>
<path d="M108.209 292.58C108.147 292.58 107.919 292.394 107.568 292.001C107.152 291.496 106.688 291.033 106.183 290.616C105.687 290.22 105.095 289.96 104.467 289.862C103.992 289.8 103.671 289.862 103.64 289.8C103.609 289.738 103.909 289.521 104.478 289.479C105.228 289.464 105.96 289.712 106.545 290.182C107.096 290.626 107.558 291.169 107.909 291.784C108.147 292.239 108.271 292.539 108.209 292.58Z" fill="#263238"/>
<path d="M119.691 289.324C119.764 289.448 119.495 289.758 119.04 289.924C118.585 290.089 118.182 290.027 118.162 289.924C118.141 289.82 118.461 289.603 118.854 289.459C119.247 289.314 119.609 289.2 119.691 289.324Z" fill="#263238"/>
<path d="M119.464 288.467C119.464 288.622 119.05 288.746 118.513 288.756C117.976 288.766 117.562 288.642 117.572 288.498C117.583 288.353 117.996 288.219 118.513 288.208C119.03 288.198 119.464 288.322 119.464 288.467Z" fill="#263238"/>
<path d="M177.734 26.7674C177.321 26.3436 176.297 26.5503 176.297 26.5503C176.4 25.9553 176.4 25.3471 176.297 24.752C176.111 24.1732 174.809 24.2869 174.809 24.2869C174.749 23.7995 174.749 23.3067 174.809 22.8193C174.82 22.7113 174.796 22.6027 174.743 22.5083C174.689 22.414 174.608 22.3385 174.509 22.2922C173.893 22.041 173.232 21.9213 172.566 21.9408C171.771 21.3724 174.995 16.8559 176.194 15.4089C177.393 13.962 177.176 12.8354 176.111 12.8354C175.378 12.8354 171.616 17.1763 170.458 18.6335C169.3 20.0908 166.231 24.1422 166.128 20.9073C166.024 17.6724 164.722 15.2332 163.905 14.8198C163.089 14.4064 162.221 15.3779 162.665 16.2771C163.056 17.2986 163.299 18.3704 163.389 19.4603C163.501 20.3286 163.463 21.2097 163.275 22.0648C162.932 23.656 162.466 25.2179 161.88 26.7364H161.797C161.797 26.7364 139.246 48.3681 137.613 49.908C136.155 51.293 106.844 48.2647 100.964 47.6446C98.9654 47.3522 96.9475 47.214 94.9279 47.2312C92.3751 47.3449 91.9203 47.7066 89.3779 47.7376C82.957 47.8089 76.5511 48.3721 70.2163 49.4223C67.3479 49.9099 64.6685 51.1761 62.4705 53.0825C60.2725 54.9889 58.6403 57.4623 57.752 60.233C51.8299 78.7331 38.4147 122.524 36.0479 147.122C34.2594 150.365 32.6449 153.701 31.211 157.116C29.547 161.643 29.9501 161.798 30.5082 161.901C32.0172 162.18 33.7328 154.056 34.3736 156.02C35.0144 157.984 31.118 165.704 32.6993 165.932C34.7663 166.221 36.4096 157.663 36.606 156.981C36.8024 156.299 37.8256 156.516 37.6395 157.157C37.3398 158.067 34.4356 167.709 36.4613 168.019C37.5775 168.185 37.7016 166.149 37.7016 166.149C37.7016 166.149 39.7686 156.919 40.7091 157.105C41.6496 157.291 40.6471 162.738 40.1717 164.557C39.6963 166.376 40.3577 167.296 41.3292 166.852C41.9907 166.542 43.572 161.012 44.0061 159.214C44.4402 157.415 45.5253 152.434 46.9826 155.317C48.4399 158.201 50.6516 159.875 51.5611 159.917C51.7661 159.893 51.9593 159.809 52.1158 159.674C52.2724 159.54 52.3851 159.362 52.4396 159.163C52.4941 158.964 52.4878 158.753 52.4215 158.558C52.3552 158.362 52.2319 158.191 52.0676 158.067C51.2853 157.303 50.6139 156.433 50.0729 155.483C49.5907 154.743 49.241 153.924 49.0393 153.064C48.6229 151.35 48.3805 149.598 48.3159 147.835L48.1505 146.801C50.4656 135.339 57.1318 101.698 66.754 80.211L70.7021 88.3345L72.4177 94.3497L61.8964 120.322L106.772 119.733L100.075 93.9569L108.209 67.0852C117.004 67.2816 139.587 67.6123 143.349 65.907C148.082 63.84 172.566 32.9169 172.566 32.9169C174.162 31.6767 175.691 30.3519 177.145 28.9481C177.145 28.9481 178.633 27.6976 177.734 26.7674Z" fill="#FFBE9D"/>
<path d="M59.9224 101.13C61.2246 96.6854 67.9115 74.7127 67.9115 74.7127C67.9115 74.7127 71.1982 92.6237 70.33 94.7837C69.5314 96.6329 68.588 98.4162 67.5085 100.117C59.9224 111.661 60.9146 117.439 60.9146 117.439L106.751 116.043C106.855 109.636 103.062 94.7321 102.276 92.3549C101.491 89.9778 104.106 82.1954 104.106 82.1954C104.106 82.1954 109.273 76.9347 109.087 74.2269C108.989 71.7945 108.688 69.3746 108.188 66.9922L136.093 68.0257L135.215 49.1122L95.1346 45.1021C93.7394 49.0398 81.12 47.1072 81.12 47.1072C67.4981 47.5619 66.6506 50.0631 60.9869 54.4659C55.3232 58.8687 45.9491 96.6544 45.9491 96.6544L59.9224 101.13Z" fill="#4CAF4F"/>
<path d="M87.0214 96.6544C86.2271 96.7963 85.4181 96.838 84.6133 96.7784C83.1147 96.7784 81.058 96.6751 78.7946 96.4477C76.5311 96.2203 74.4848 95.8999 73.0275 95.6105C72.224 95.5071 71.4361 95.3058 70.6814 95.0111C71.4894 95.0114 72.2957 95.0876 73.0895 95.2385C74.5571 95.4245 76.5932 95.6829 78.8462 95.9103C81.0993 96.1376 83.1457 96.2927 84.6237 96.396C85.4293 96.4062 86.2321 96.4927 87.0214 96.6544Z" fill="#263238"/>
<path d="M90.1634 92.758C89.3688 93.1473 88.5285 93.4354 87.6623 93.6158C83.5389 94.6993 79.2847 95.2037 75.0222 95.1144C74.1402 95.1432 73.2581 95.0598 72.3971 94.8664C73.2676 94.7564 74.1451 94.7116 75.0222 94.732C76.6449 94.6804 78.8773 94.5667 81.3371 94.2773C83.7969 93.9879 85.988 93.5745 87.5383 93.2438C88.3993 93.0138 89.277 92.8514 90.1634 92.758Z" fill="#263238"/>
<path d="M105.584 75.3741C105.563 76.1621 105.455 76.9453 105.263 77.7098C104.994 79.1465 104.581 81.1102 104.054 83.2599C103.527 85.4096 103.02 87.394 102.566 88.7376C102.383 89.5067 102.112 90.2522 101.76 90.9597C101.817 90.1741 101.963 89.3976 102.194 88.6446C102.586 87.0323 103.031 85.1719 103.527 83.1359C104.023 81.0998 104.498 79.2395 104.891 77.6272C105.031 76.8511 105.263 76.0947 105.584 75.3741Z" fill="#263238"/>
<path d="M60.4082 98.4941C58.0172 98.1248 55.6574 97.5755 53.3492 96.8508C50.9906 96.2993 48.676 95.5738 46.4246 94.6804C48.8144 95.0556 51.1737 95.6048 53.4835 96.3237C55.8427 96.8732 58.1574 97.5987 60.4082 98.4941Z" fill="#263238"/>
<path d="M108.684 66.7648C108.294 66.8319 107.896 66.8319 107.506 66.7648C106.426 66.6541 105.366 66.4004 104.354 66.0103C102.663 65.375 101.124 64.393 99.8351 63.1275C98.5465 61.862 97.5368 60.3409 96.871 58.662C96.135 56.815 95.8207 54.8271 95.9511 52.8432C95.9972 51.2069 96.4866 49.6137 97.367 48.2337C97.9863 47.304 98.9114 46.6203 99.9819 46.301C100.268 46.2221 100.564 46.1838 100.86 46.1873C101.067 46.1873 101.17 46.1873 101.17 46.1873C101.17 46.1873 100.736 46.1873 100.044 46.4663C99.0618 46.8292 98.2289 47.5093 97.6771 48.399C96.2715 50.6108 95.8788 54.6519 97.3774 58.4243C98.0749 60.2029 99.1668 61.8002 100.571 63.0958C101.722 64.1559 103.047 65.0091 104.488 65.6176C105.841 66.1521 107.248 66.5368 108.684 66.7648Z" fill="#263238"/>
<path d="M132.776 67.6537C132.517 64.4843 132.434 61.3031 132.528 58.1245C132.447 54.9487 132.543 51.7708 132.817 48.6058C133.076 51.7717 133.158 54.9495 133.065 58.1245C133.152 61.3038 133.055 64.4855 132.776 67.6537Z" fill="#263238"/>
<path d="M94.8659 46.2596C94.9796 43.9548 95.2173 41.3504 95.2173 41.3504C95.2173 41.3504 100.922 40.7199 101.263 34.8288C101.605 28.9377 101.263 15.3468 101.263 15.3468L90.9282 10.0552L79.4561 19.0779L81.2234 48.5334L91.7447 49.2051C92.5489 49.2274 93.3291 48.9298 93.9143 48.3776C94.4994 47.8255 94.8416 47.0638 94.8659 46.2596Z" fill="#FFBE9D"/>
<path d="M95.8891 30.1677C95.8891 30.1677 95.8891 30.2814 95.7961 30.4157C95.7192 30.5132 95.6197 30.5905 95.5063 30.6409C95.3928 30.6913 95.2688 30.7134 95.145 30.7051C94.4835 30.7051 93.8427 29.9403 93.6154 29.0515C93.5073 28.6206 93.5073 28.1698 93.6154 27.7389C93.6366 27.5508 93.7044 27.371 93.8127 27.2158C93.921 27.0606 94.0663 26.9349 94.2355 26.8501C94.3745 26.7927 94.5305 26.7927 94.6695 26.8501C94.7726 26.9012 94.8561 26.9847 94.9073 27.0878C94.9796 27.2635 94.9073 27.3772 94.9073 27.3668C94.9073 27.3565 94.9073 27.2635 94.8039 27.1601C94.7499 27.0861 94.6704 27.0346 94.5808 27.0156C94.4912 26.9965 94.3976 27.0112 94.3181 27.0568C94.1914 27.1334 94.086 27.2409 94.0119 27.3692C93.9379 27.4975 93.8974 27.6424 93.8944 27.7906C93.8074 28.175 93.8074 28.574 93.8944 28.9585C94.1011 29.7646 94.6592 30.4157 95.1553 30.4777C95.2524 30.4909 95.3511 30.4839 95.4453 30.4573C95.5396 30.4306 95.6273 30.3848 95.7031 30.3227C95.8271 30.24 95.8684 30.1573 95.8891 30.1677Z" fill="#EB996E"/>
<path d="M104.808 12.1636C104.013 9.45578 101.129 8.11219 98.5039 7.36806C94.5041 6.23118 90.184 5.73508 86.2773 7.17168C82.3705 8.60828 77.6783 11.1301 77.6783 15.4399C75.3736 15.2539 74.0506 17.2692 73.1411 19.7704C72.5596 21.2942 72.2112 22.8969 72.1076 24.5246C71.8182 30.1677 70.2369 37.9604 66.5782 42.0946C64.5112 44.3993 61.6483 45.991 60.4701 48.8642C59.4366 51.355 59.974 54.3108 59.0128 56.8326C58.155 59.0547 56.2636 60.636 54.8787 62.5687C53.4678 64.7612 52.6374 67.2764 52.4657 69.878C52.2939 72.4796 52.7864 75.0822 53.8969 77.4412C55.0153 79.7396 56.59 81.7863 58.525 83.4566C60.46 85.1268 62.7148 86.3856 65.152 87.1563C69.9796 88.625 75.1277 88.6753 79.9831 87.301C83.627 86.4297 87.0263 84.7442 89.9256 82.3711C92.8922 79.9485 94.9297 76.5746 95.6927 72.8213C96.4265 68.6045 95.2483 64.3154 94.3698 60.1193C91.6206 46.8591 92.4061 46.1666 95.8787 33.8573C95.9614 33.6403 96.0027 33.4129 96.0648 33.1959C96.1268 32.9788 96.1578 32.8755 96.1991 32.7101C96.2978 32.2235 96.3497 31.7286 96.3541 31.2322C95.8469 31.4208 95.2964 31.4607 94.7673 31.3472C94.2382 31.2337 93.7525 30.9715 93.3672 30.5914C92.9811 30.1861 92.7119 29.6839 92.5882 29.138C92.4645 28.5922 92.4908 28.0229 92.6645 27.4908C92.9083 26.9088 93.2716 26.3845 93.731 25.9519C94.1903 25.5193 94.7354 25.1879 95.3309 24.9794C96.4782 24.5039 97.708 24.2559 98.8346 23.7288C101.222 22.5919 102.876 20.2355 104.002 17.7653C104.928 16.0533 105.214 14.0673 104.808 12.1636Z" fill="#263238"/>
<path d="M96.3025 30.4467C96.5209 30.7694 96.7012 31.1162 96.8399 31.4802C97.15 32.1314 97.5634 33.0512 98.0181 34.1157L98.1008 34.3121H97.8838L96.8503 34.4051C96.1371 34.4051 95.5377 34.5395 94.8349 34.5291C94.7737 34.5154 94.717 34.4864 94.67 34.4448C94.623 34.4033 94.5873 34.3505 94.5662 34.2914C94.5354 34.1974 94.5354 34.0961 94.5662 34.0021C94.5901 33.8627 94.6211 33.7248 94.6592 33.5886L94.8452 32.8548C94.9387 32.3653 95.0842 31.8872 95.2793 31.4286C95.2601 31.9276 95.1873 32.4231 95.0623 32.9065L94.9176 33.6403C94.8659 33.8884 94.7729 34.2708 94.9176 34.2398C95.4343 34.2398 96.1681 34.1261 96.8503 34.0847L97.8838 33.9917L97.7494 34.2191C97.305 33.1856 96.9329 32.214 96.7159 31.5423C96.5255 31.1991 96.3862 30.8301 96.3025 30.4467Z" fill="#4CAF4F"/>
<path d="M60.9146 117.439L106.751 116.043L126.699 193.909L123.03 283.227H98.7933L101.76 195.811L84.0346 141.602L86.7631 286.689L62.2685 287.051L59.695 150.677C59.5813 146.884 58.3411 138.336 58.8062 134.574L60.9146 117.439Z" fill="#263238"/>
<path d="M90.1324 142.708C89.3821 142.756 88.6289 142.71 87.8897 142.574C86.5047 142.409 84.6134 142.119 82.536 141.706C80.4586 141.292 78.5983 140.817 77.2547 140.435C76.5365 140.277 75.8417 140.027 75.1876 139.69C75.1876 139.535 78.5569 140.342 82.691 141.179C86.8251 142.016 90.1531 142.553 90.1324 142.708Z" fill="#455A64"/>
<path d="M122.781 278.328C122.781 278.472 117.293 278.596 110.524 278.596C103.754 278.596 98.2559 278.472 98.2559 278.328C98.2559 278.183 103.744 278.059 110.524 278.059C117.304 278.059 122.781 278.173 122.781 278.328Z" fill="#455A64"/>
<path d="M86.546 282.916C86.546 283.072 81.213 283.185 74.6398 283.185C68.0666 283.185 62.7439 283.072 62.7439 282.916C62.7439 282.761 68.0769 282.648 74.6398 282.648C81.2027 282.648 86.546 282.772 86.546 282.916Z" fill="#455A64"/>
<path d="M83.3834 282.544C83.2387 282.544 82.5979 250.846 81.9468 211.748C81.2957 172.65 80.9133 140.931 81.0476 140.931C81.182 140.931 81.8435 172.619 82.4842 211.738C83.125 250.857 83.5384 282.544 83.3834 282.544Z" fill="#455A64"/>
<path d="M119.526 278.328C119.515 278.187 119.515 278.045 119.526 277.904V276.664C119.526 275.547 119.609 273.946 119.671 271.909C119.815 267.775 120.022 261.771 120.28 254.412C120.838 239.612 121.624 219.21 122.482 196.689C122.482 196.472 122.482 196.266 122.482 196.08V196.152C117.056 174.448 112.146 154.749 108.581 140.497L104.447 123.64C103.971 121.666 103.61 120.126 103.351 119.051C103.227 118.544 103.144 118.152 103.072 117.852C103.032 117.718 103.008 117.579 103 117.439C103.053 117.569 103.095 117.704 103.124 117.842C103.206 118.131 103.31 118.524 103.454 119.02C103.734 120.053 104.137 121.624 104.653 123.588C105.687 127.577 107.144 133.324 108.963 140.404C112.56 154.646 117.521 174.293 123.019 196.028V196.1C123.019 196.286 123.019 196.503 123.019 196.71C122.099 219.231 121.262 239.622 120.652 254.422C120.332 261.791 120.063 267.755 119.877 271.909C119.774 273.977 119.691 275.547 119.64 276.664C119.64 277.191 119.578 277.604 119.567 277.904C119.569 278.046 119.555 278.188 119.526 278.328Z" fill="#455A64"/>
<path d="M111.619 194.261C109.879 194.833 108.085 195.231 106.266 195.449C104.033 195.832 102.132 196.1 101.274 196.142V195.935C101.553 196.018 101.698 196.069 101.698 196.111C101.698 196.152 101.522 196.111 101.232 196.111H100.612L101.232 195.925C102.039 195.687 103.94 195.294 106.173 194.891C107.963 194.503 109.788 194.291 111.619 194.261Z" fill="#455A64"/>
<path d="M111.196 197.227C109.583 197.301 107.968 197.228 106.369 197.01C104.755 196.977 103.146 196.8 101.563 196.483C104.793 196.219 108.044 196.47 111.196 197.227Z" fill="#455A64"/>
<path opacity="0.2" d="M60.7181 119.082C61.261 119.779 61.9447 120.354 62.7248 120.769C63.5048 121.184 64.3635 121.429 65.245 121.49C67.091 121.709 68.9584 121.674 70.795 121.387C82.6289 120.074 95.1656 118.865 106.751 116.043C91.7549 116.88 75.911 116.601 60.9145 117.439L60.7595 118.72" fill="black"/>
<g opacity="0.2">
<path d="M76.1694 140.218L84.6237 173.022L84.0346 141.602L76.1694 140.218Z" fill="black"/>
</g>
</svg>
