<?xml version="1.0" standalone="no"?>
<!DOCTYPE svg PUBLIC "-//W3C//DTD SVG 20010904//EN"
 "http://www.w3.org/TR/2001/REC-SVG-20010904/DTD/svg10.dtd">
<svg version="1.0" xmlns="http://www.w3.org/2000/svg"
 width="1152.000000pt" height="1152.000000pt" viewBox="0 0 1152.000000 1152.000000"
 preserveAspectRatio="xMidYMid meet">
<metadata>
Created by potrace 1.14, written by Peter Selinger 2001-2017
</metadata>
<g transform="translate(0.000000,1152.000000) scale(0.100000,-0.100000)"
fill="#000000" stroke="none">
<path d="M281 9522 c24 -42 55 -98 71 -124 15 -27 24 -48 20 -48 -4 0 -2 -4 3
-8 6 -4 53 -83 105 -177 51 -93 102 -186 113 -205 11 -19 33 -60 50 -90 17
-30 56 -102 89 -159 32 -57 58 -105 58 -106 0 -2 23 -42 50 -90 28 -48 50 -88
50 -91 0 -2 19 -36 43 -76 23 -40 49 -88 56 -105 7 -18 17 -33 22 -33 5 0 9
-4 9 -10 0 -9 37 -78 128 -240 14 -25 39 -70 55 -100 17 -30 52 -93 79 -139
26 -46 48 -86 48 -88 0 -2 32 -59 70 -127 39 -68 70 -129 70 -134 0 -6 3 -12
8 -14 7 -3 14 -15 71 -123 14 -27 29 -51 34 -53 4 -2 7 -8 7 -14 0 -5 9 -23
21 -39 11 -16 18 -29 15 -29 -3 0 6 -16 19 -36 14 -20 25 -43 25 -50 0 -8 4
-14 9 -14 5 0 11 -8 14 -17 6 -17 19 -41 128 -235 27 -48 49 -92 49 -97 0 -5
3 -11 8 -13 4 -1 14 -16 23 -33 39 -75 74 -140 79 -145 3 -3 18 -30 34 -60 16
-30 37 -67 46 -81 l15 -27 63 102 c34 55 72 117 84 136 31 48 39 62 72 117 31
51 65 105 139 220 26 40 47 77 47 83 0 5 5 10 10 10 6 0 10 4 10 9 0 9 170
285 190 308 5 7 10 15 10 17 0 6 50 86 153 248 21 31 37 61 37 67 0 6 4 11 9
11 5 0 13 10 17 23 4 12 10 24 13 27 4 3 36 52 71 110 36 58 74 119 85 137 36
57 109 174 270 433 168 272 197 319 227 362 10 15 18 30 18 33 0 4 11 21 25
39 14 18 25 36 25 39 0 4 24 44 53 89 110 171 367 588 367 596 0 4 -21 9 -47
10 -54 1 -395 9 -758 16 -132 3 -355 8 -495 11 -140 4 -335 8 -432 10 -97 2
-181 6 -187 9 -5 4 -12 2 -16 -4 -4 -6 -11 -8 -16 -5 -5 4 -111 8 -236 10
-126 3 -336 7 -468 10 -561 12 -703 15 -933 20 l-243 4 42 -77z"/>
<path d="M9184 9489 c-33 -56 -69 -118 -81 -138 -12 -20 -28 -47 -36 -61 -19
-35 -49 -85 -86 -148 -17 -29 -31 -57 -31 -62 0 -4 -4 -10 -8 -12 -5 -1 -22
-28 -39 -58 -16 -30 -64 -112 -106 -182 -42 -71 -73 -128 -69 -128 4 0 2 -4
-4 -8 -6 -4 -67 -103 -135 -220 -68 -117 -134 -229 -147 -250 -12 -20 -32 -55
-44 -77 -12 -22 -27 -48 -33 -57 -26 -42 -144 -247 -161 -278 -10 -19 -21 -37
-24 -40 -5 -4 -235 -397 -311 -529 -14 -25 -35 -60 -45 -78 -55 -91 -81 -139
-82 -147 0 -5 -4 -12 -10 -15 -5 -3 -26 -37 -48 -74 -21 -38 -44 -76 -49 -85
-6 -9 -36 -62 -68 -117 -32 -55 -62 -107 -67 -115 -6 -8 -44 -73 -85 -145 -41
-71 -80 -137 -85 -145 -5 -8 -26 -44 -47 -80 -21 -36 -43 -74 -50 -85 -6 -11
-20 -36 -31 -55 -10 -19 -44 -77 -75 -128 -31 -51 -57 -98 -57 -105 0 -9 472
-12 2167 -10 2492 3 2212 1 2195 12 -8 4 -12 10 -11 12 2 2 -4 15 -13 29 -42
69 -78 131 -78 135 0 3 -12 24 -26 46 -23 36 -200 337 -245 416 -33 59 -261
447 -280 478 -10 17 -22 37 -26 45 -4 8 -33 59 -65 113 -32 53 -58 102 -58
107 0 6 -3 10 -7 10 -10 0 -43 58 -43 75 0 7 -3 15 -7 17 -9 4 -52 70 -73 113
-8 17 -17 32 -20 35 -10 9 -215 364 -218 377 -2 7 -8 13 -13 13 -5 0 -9 4 -9
9 0 5 -34 67 -75 136 -41 70 -75 128 -75 130 0 2 -22 40 -50 84 -27 44 -50 85
-50 91 0 5 -5 10 -11 10 -5 0 -8 4 -5 9 3 5 -1 14 -9 21 -8 7 -15 19 -15 26 0
8 -3 14 -7 14 -5 0 -19 23 -32 50 -14 28 -29 50 -33 50 -4 0 -8 5 -8 10 0 6
-91 166 -202 355 -239 407 -235 400 -272 467 -15 29 -33 59 -39 67 -13 15 -33
49 -43 71 -14 31 -59 100 -65 100 -4 0 -33 -46 -65 -101z m193 -634 c13 -22
26 -48 30 -57 3 -10 9 -18 14 -18 5 0 9 -5 9 -10 0 -6 18 -40 40 -76 22 -36
40 -67 40 -69 0 -1 32 -55 70 -119 39 -65 70 -121 70 -127 0 -5 5 -9 10 -9 6
0 9 -3 8 -7 -1 -5 5 -19 14 -33 14 -23 126 -213 176 -300 11 -19 66 -114 122
-210 57 -96 110 -188 119 -203 9 -16 21 -36 26 -45 6 -9 28 -48 50 -87 21 -38
41 -72 44 -75 3 -3 12 -16 19 -29 8 -13 22 -39 33 -57 10 -19 29 -51 40 -71
12 -21 30 -50 41 -65 11 -16 16 -28 11 -28 -4 0 -3 -4 2 -8 6 -4 17 -19 25
-34 8 -15 44 -76 79 -135 35 -60 75 -128 89 -153 24 -42 51 -90 79 -135 67
-112 173 -299 173 -306 0 -5 5 -9 10 -9 6 0 10 -5 10 -10 0 -6 11 -27 24 -48
45 -70 111 -187 111 -196 0 -6 -684 -10 -1718 -10 -944 -1 -1717 3 -1717 7 0
5 8 21 19 35 10 15 22 37 25 50 4 12 12 22 17 22 5 0 9 4 9 9 0 8 40 79 72
129 10 15 21 34 25 42 4 8 28 52 55 97 26 45 48 86 48 92 0 6 4 11 8 11 4 0
19 22 33 50 13 27 27 50 32 50 4 0 7 5 7 10 0 6 11 27 23 48 13 20 35 58 49
83 46 82 53 94 59 99 3 3 23 37 44 75 21 39 50 88 64 110 14 22 26 42 26 45 0
3 23 42 50 88 74 124 85 143 113 192 14 25 39 68 56 95 17 28 37 61 44 75 6
14 18 34 24 45 41 64 88 143 88 149 0 4 8 19 19 34 10 15 42 68 70 117 28 50
56 97 61 105 31 50 96 162 127 220 19 33 123 208 143 240 5 8 20 33 31 55 12
22 55 96 95 163 41 68 74 128 74 133 0 5 5 9 10 9 6 0 10 4 10 10 0 5 21 43
46 85 l46 76 50 -88 c28 -48 62 -106 75 -128z"/>
<path d="M4474 9225 c-27 -47 -58 -101 -69 -119 -11 -19 -56 -96 -100 -171
-44 -75 -93 -157 -108 -183 -15 -26 -32 -56 -37 -67 -6 -11 -28 -49 -50 -84
-22 -34 -40 -65 -40 -67 0 -3 -12 -23 -27 -47 -15 -23 -42 -69 -61 -102 -55
-96 -74 -128 -91 -157 -15 -24 -88 -150 -122 -208 -8 -14 -18 -28 -22 -31 -5
-3 -8 -8 -6 -10 1 -2 -10 -23 -24 -46 -15 -24 -27 -45 -27 -47 0 -2 -31 -56
-70 -120 -38 -64 -70 -119 -70 -123 0 -3 -6 -14 -14 -22 -14 -16 -55 -87 -89
-153 -10 -21 -22 -38 -26 -38 -4 0 -13 -16 -20 -35 -7 -19 -17 -35 -22 -35 -5
0 -9 -5 -9 -10 0 -6 -61 -115 -137 -243 -171 -292 -196 -334 -219 -377 -10
-19 -22 -36 -26 -38 -5 -2 -8 -10 -8 -18 0 -8 -4 -14 -8 -14 -4 0 -13 -12 -19
-27 -7 -16 -30 -57 -52 -93 -22 -36 -44 -72 -47 -80 -4 -8 -22 -39 -41 -68
-18 -29 -33 -54 -33 -56 0 -8 -164 -282 -179 -300 -15 -17 -14 -18 9 -16 14 1
30 2 35 1 8 -2 3095 -1 3130 0 6 1 25 -1 43 -4 18 -2 35 0 38 4 3 5 10 6 16 3
6 -4 38 -6 72 -5 33 1 68 2 76 2 8 0 103 -1 210 -1 246 -1 229 -2 210 10 -8 5
-12 10 -7 10 4 0 -4 18 -18 40 -14 22 -25 44 -25 50 0 5 -4 10 -10 10 -5 0
-10 4 -10 9 0 8 -118 215 -160 281 -11 19 -117 200 -159 273 -32 57 -153 261
-170 287 -8 14 -16 27 -16 30 0 3 -16 30 -35 60 -19 30 -40 66 -47 80 -7 14
-23 41 -35 62 -13 20 -52 87 -88 149 -36 61 -75 128 -86 148 -12 20 -103 176
-202 346 -100 171 -185 315 -189 321 -8 10 -17 25 -53 88 -34 60 -204 351
-317 543 -12 21 -30 52 -40 70 -10 17 -47 80 -82 140 -35 59 -75 128 -89 153
-13 25 -31 52 -38 61 -8 8 -14 20 -14 25 0 5 -7 17 -14 26 -12 16 -18 9 -62
-67z"/>
<path d="M2355 5660 c-11 -4 27 -77 151 -290 92 -157 174 -298 184 -315 10
-16 41 -70 70 -120 29 -49 66 -112 82 -140 16 -27 52 -88 79 -135 28 -47 64
-110 81 -140 17 -30 34 -59 38 -65 10 -12 233 -394 243 -415 4 -8 16 -28 26
-45 10 -16 110 -185 221 -375 209 -355 214 -364 272 -465 19 -33 90 -154 158
-270 68 -115 132 -226 143 -245 10 -19 38 -66 62 -105 23 -38 53 -90 67 -115
28 -49 143 -246 158 -270 22 -36 104 -177 114 -197 6 -13 16 -23 21 -23 6 0
15 10 21 23 6 12 50 88 97 169 48 81 87 152 87 157 0 5 4 11 8 13 6 2 183 300
367 621 17 28 42 70 55 92 14 22 34 56 45 77 41 75 129 223 141 238 7 8 12 17
11 20 0 3 6 16 15 30 57 92 208 353 208 361 0 5 5 9 10 9 6 0 10 4 10 9 0 13
82 155 92 159 4 2 8 8 8 14 0 6 24 49 52 97 29 47 52 89 50 94 -1 4 3 7 8 7 6
0 10 4 10 9 0 4 32 61 70 125 39 65 70 121 70 127 0 5 3 9 8 9 4 0 15 17 25
38 9 20 26 51 36 67 10 17 62 104 115 195 53 91 100 172 105 180 5 8 49 83 97
165 47 83 94 161 103 175 26 41 40 64 47 80 4 8 37 65 73 125 36 61 72 121 78
135 7 14 24 44 38 68 l26 42 -28 0 c-241 4 -4318 4 -4328 0z m3882 -268 c6 -1
-17 -49 -52 -107 -35 -58 -61 -105 -57 -105 4 0 2 -4 -3 -8 -13 -9 -125 -200
-125 -213 0 -5 -4 -9 -8 -9 -5 0 -19 -22 -32 -50 -13 -27 -26 -50 -30 -50 -4
0 -14 -17 -23 -37 -9 -21 -37 -71 -62 -111 -25 -41 -45 -78 -45 -83 0 -5 -4
-9 -9 -9 -5 0 -11 -8 -14 -17 -3 -10 -19 -40 -36 -68 -16 -27 -36 -61 -44 -75
-7 -14 -53 -91 -100 -172 -48 -81 -87 -152 -87 -157 0 -5 -4 -11 -8 -13 -7 -3
-282 -469 -366 -621 -16 -28 -32 -54 -35 -57 -4 -3 -12 -16 -18 -30 -7 -14
-26 -47 -43 -75 -16 -27 -33 -57 -37 -65 -3 -8 -9 -17 -12 -20 -3 -3 -15 -22
-26 -42 -34 -64 -196 -342 -216 -370 -11 -15 -19 -30 -19 -33 0 -3 -16 -31
-35 -61 -19 -30 -35 -56 -35 -58 0 -3 -29 -54 -65 -115 -60 -102 -85 -131 -85
-99 0 10 -96 178 -165 288 -12 19 -36 61 -54 93 -17 32 -45 79 -61 105 -16 26
-35 58 -42 72 -7 14 -18 31 -25 38 -7 7 -13 17 -13 22 0 6 -49 93 -90 160 -20
32 -96 163 -115 198 -11 20 -41 72 -67 115 -27 43 -48 79 -48 82 0 2 -22 40
-50 84 -27 44 -50 83 -50 86 0 3 -12 24 -27 48 -15 23 -42 69 -61 102 -79 138
-160 277 -172 295 -5 8 -21 35 -35 60 -14 25 -34 59 -44 75 -10 17 -29 49 -42
72 -13 23 -45 78 -71 122 -27 44 -48 85 -48 91 0 5 -3 10 -7 10 -5 0 -13 10
-19 23 -6 12 -56 100 -112 195 -56 96 -102 177 -102 182 0 5 -3 10 -8 12 -4 2
-37 55 -73 118 -37 63 -76 131 -88 151 l-21 35 1713 -1 c941 -1 1717 -3 1724
-3z"/>
<path d="M7374 5498 c-3 -4 16 -41 41 -82 25 -41 48 -83 52 -93 4 -10 24 -45
45 -79 21 -34 38 -63 38 -66 0 -3 23 -45 51 -94 29 -49 63 -109 77 -134 14
-25 57 -101 96 -170 40 -69 75 -132 79 -140 4 -8 17 -31 28 -50 12 -19 37 -64
57 -100 19 -36 43 -77 54 -92 10 -14 18 -29 18 -32 0 -3 18 -35 40 -71 22 -36
40 -68 40 -70 0 -5 65 -121 175 -310 29 -49 64 -111 78 -137 15 -26 47 -84 72
-128 25 -43 45 -84 45 -90 0 -5 3 -10 8 -10 4 0 20 -26 37 -58 16 -31 32 -59
35 -62 3 -3 12 -18 20 -35 8 -16 36 -67 63 -111 26 -45 47 -87 47 -93 0 -6 4
-11 9 -11 5 0 15 -16 22 -35 7 -19 17 -35 21 -35 4 0 8 -4 8 -9 0 -5 16 -38
36 -73 20 -34 48 -83 62 -108 13 -25 42 -74 62 -110 38 -65 60 -105 108 -190
185 -331 251 -439 259 -427 6 6 27 44 48 82 22 39 41 72 44 75 3 3 20 31 36
62 17 32 33 58 38 58 4 0 7 6 7 13 0 6 23 49 50 95 28 46 50 85 50 88 0 3 16
29 35 59 19 30 32 55 28 55 -3 0 1 8 9 18 12 13 204 343 272 467 6 11 16 27
23 35 6 8 13 22 15 30 2 8 5 17 8 20 6 5 27 40 73 120 11 19 30 53 43 75 13
22 29 51 36 65 7 14 15 27 18 30 3 3 13 20 23 38 9 17 25 47 35 65 9 17 20 34
25 35 4 2 7 8 7 12 0 5 32 64 71 132 40 67 80 138 91 156 10 18 53 93 95 165
85 148 88 154 164 287 29 52 56 97 59 100 3 3 14 21 24 40 9 19 28 53 41 75
13 22 31 54 40 70 8 17 26 48 40 70 14 22 29 49 35 60 5 11 22 41 37 67 15 26
62 107 104 180 42 73 99 172 127 221 28 48 50 88 49 88 -8 6 -3779 3 -3783 -3z"/>
<path d="M6850 5240 c-19 -34 -45 -79 -57 -101 -13 -22 -42 -72 -66 -112 -24
-40 -47 -79 -50 -87 -4 -8 -18 -33 -32 -55 -14 -22 -30 -52 -36 -67 -6 -16
-14 -28 -18 -28 -4 0 -18 -22 -31 -50 -13 -27 -27 -50 -32 -50 -5 0 -7 -4 -4
-8 3 -5 -4 -19 -15 -30 -10 -12 -19 -24 -19 -27 -1 -10 -14 -40 -20 -45 -3 -3
-18 -25 -31 -50 -14 -25 -35 -61 -46 -80 -11 -19 -55 -96 -98 -170 -42 -74
-94 -162 -114 -195 -46 -77 -78 -134 -94 -165 -6 -14 -14 -27 -18 -30 -3 -3
-16 -24 -28 -47 -11 -23 -25 -45 -31 -48 -6 -4 -8 -10 -5 -15 3 -4 -2 -13 -10
-20 -8 -7 -15 -19 -15 -26 0 -8 -4 -14 -10 -14 -5 0 -10 -4 -10 -8 0 -7 -24
-51 -113 -205 -11 -18 -29 -50 -40 -72 -12 -22 -26 -44 -30 -50 -4 -5 -59
-100 -123 -210 -63 -110 -119 -207 -124 -215 -5 -8 -22 -37 -38 -65 -16 -27
-54 -94 -85 -147 -31 -54 -57 -102 -57 -108 0 -5 -4 -10 -8 -10 -4 0 -21 -26
-37 -57 -16 -32 -32 -60 -35 -63 -4 -3 -18 -25 -30 -50 -12 -25 -26 -47 -29
-50 -4 -3 -13 -18 -21 -35 -15 -30 -88 -157 -118 -205 -9 -14 -15 -27 -13 -29
1 -2 -1 -7 -6 -10 -9 -7 -22 -29 -67 -111 -16 -30 -32 -57 -36 -60 -4 -3 -9
-13 -13 -22 -6 -17 92 -18 1963 -18 1084 0 1970 2 1970 4 0 2 -76 135 -168
297 -92 162 -171 301 -175 309 -4 8 -18 33 -32 55 -14 22 -31 51 -37 65 -7 14
-27 49 -45 78 -18 29 -33 54 -33 57 0 2 -22 42 -49 87 -26 46 -59 103 -73 128
-14 25 -48 85 -77 134 -28 49 -51 90 -51 92 0 1 -19 35 -43 76 -41 68 -57 97
-124 215 -14 27 -37 65 -50 85 -12 21 -23 39 -23 41 0 2 -23 44 -51 93 -29 49
-65 114 -82 144 -17 30 -38 67 -49 82 -10 14 -18 28 -18 31 0 3 -22 44 -50 92
-27 48 -50 91 -50 96 0 5 -3 9 -8 9 -4 0 -13 15 -21 33 -8 17 -17 34 -20 37
-7 5 -16 22 -62 106 -16 31 -36 66 -43 77 -25 41 -100 172 -101 177 -2 7 -36
67 -62 106 -12 19 -20 34 -16 34 3 0 -1 8 -9 18 -8 9 -30 44 -49 77 -18 33
-44 78 -57 100 -12 22 -30 56 -40 75 -9 19 -19 37 -22 40 -3 3 -11 16 -18 29
-8 13 -23 40 -34 60 -12 20 -33 59 -49 86 -23 43 -32 50 -61 53 -31 3 -35 -1
-68 -58z"/>
</g>
</svg>
